<?xml version="1.0" encoding="UTF-8" standalone="no"?>
<!-- Created with Inkscape (http://www.inkscape.org/) -->

<svg
   width="32"
   height="32"
   viewBox="0 0 32 32"
   version="1.1"
   id="svg1"
   inkscape:version="1.3 (0e150ed6c4, 2023-07-21)"
   sodipodi:docname="checkbox.svg"
   xmlns:inkscape="http://www.inkscape.org/namespaces/inkscape"
   xmlns:sodipodi="http://sodipodi.sourceforge.net/DTD/sodipodi-0.dtd"
   xmlns="http://www.w3.org/2000/svg"
   xmlns:svg="http://www.w3.org/2000/svg">
  <sodipodi:namedview
     id="namedview1"
     pagecolor="#505050"
     bordercolor="#eeeeee"
     borderopacity="1"
     inkscape:showpageshadow="0"
     inkscape:pageopacity="0"
     inkscape:pagecheckerboard="0"
     inkscape:deskcolor="#d1d1d1"
     inkscape:document-units="px"
     showgrid="true"
     inkscape:zoom="12.703125"
     inkscape:cx="12.04428"
     inkscape:cy="15.075031"
     inkscape:window-width="1920"
     inkscape:window-height="1009"
     inkscape:window-x="-8"
     inkscape:window-y="-8"
     inkscape:window-maximized="1"
     inkscape:current-layer="layer1">
    <inkscape:grid
       id="grid1"
       units="px"
       originx="0"
       originy="0"
       spacingx="1"
       spacingy="1"
       empcolor="#0099e5"
       empopacity="0.30196078"
       color="#0099e5"
       opacity="0.14901961"
       empspacing="5"
       dotted="false"
       gridanglex="30"
       gridanglez="30"
       visible="true" />
  </sodipodi:namedview>
  <defs
     id="defs1" />
  <g
     inkscape:label="Warstwa 1"
     inkscape:groupmode="layer"
     id="layer1">
    <path
       d="m 10,2 a 8,8 0 0 0 -1.5605469,0.1542969 8,8 0 0 0 -1.5,0.4550781 A 8,8 0 0 0 5.5546875,3.3476563 8,8 0 0 0 4.34375,4.34375 8,8 0 0 0 3.3476563,5.5546875 8,8 0 0 0 2.609375,6.9394531 a 8,8 0 0 0 -0.4550781,1.5 A 8,8 0 0 0 2,10 v 12 a 8,8 0 0 0 0.1542969,1.560547 8,8 0 0 0 0.4550781,1.5 8,8 0 0 0 0.7382813,1.384765 8,8 0 0 0 0.9960937,1.210938 8,8 0 0 0 1.2109375,0.996094 8,8 0 0 0 1.3847656,0.738281 8,8 0 0 0 1.5,0.455078 A 8,8 0 0 0 10,30 h 12 a 8,8 0 0 0 1.560547,-0.154297 8,8 0 0 0 1.5,-0.455078 8,8 0 0 0 1.384765,-0.738281 8,8 0 0 0 1.210938,-0.996094 8,8 0 0 0 0.996094,-1.210938 8,8 0 0 0 0.738281,-1.384765 8,8 0 0 0 0.455078,-1.5 A 8,8 0 0 0 30,22 V 10 A 8,8 0 0 0 29.982422,9.4765625 8,8 0 0 0 29.931641,8.9550781 8,8 0 0 0 29.845703,8.4394531 8,8 0 0 0 29.726562,7.9296875 8,8 0 0 0 29.576172,7.4277344 8,8 0 0 0 29.390625,6.9394531 8,8 0 0 0 29.175781,6.4609375 8,8 0 0 0 28.927734,6 8,8 0 0 0 28.652344,5.5546875 8,8 0 0 0 28.347656,5.1308594 8,8 0 0 0 28.015625,4.7246094 8,8 0 0 0 27.65625,4.34375 8,8 0 0 0 27.275391,3.984375 8,8 0 0 0 26.869141,3.6523438 8,8 0 0 0 26.445312,3.3476563 8,8 0 0 0 26,3.0722656 8,8 0 0 0 25.539062,2.8242188 8,8 0 0 0 25.060547,2.609375 8,8 0 0 0 24.572266,2.4238281 8,8 0 0 0 24.070312,2.2734375 8,8 0 0 0 23.560547,2.1542969 8,8 0 0 0 23.044922,2.0683594 8,8 0 0 0 22.523437,2.0175781 8,8 0 0 0 22,2 Z m 1.714844,4 h 8.570312 a 5.7142857,5.7142857 0 0 1 0.427735,0.015625 5.7142857,5.7142857 0 0 1 0.423828,0.048828 5.7142857,5.7142857 0 0 1 0.419922,0.078125 5.7142857,5.7142857 0 0 1 0.414062,0.1113281 5.7142857,5.7142857 0 0 1 0.402344,0.140625 5.7142857,5.7142857 0 0 1 0.392578,0.171875 5.7142857,5.7142857 0 0 1 0.376953,0.1992188 5.7142857,5.7142857 0 0 1 0.361328,0.2265625 5.7142857,5.7142857 0 0 1 0.34375,0.2539062 5.7142857,5.7142857 0 0 1 0.324219,0.2792969 5.7142857,5.7142857 0 0 1 0.302734,0.3027344 5.7142857,5.7142857 0 0 1 0.279297,0.3242188 5.7142857,5.7142857 0 0 1 0.253906,0.34375 5.7142857,5.7142857 0 0 1 0.226563,0.3613281 5.7142857,5.7142857 0 0 1 0.199219,0.3769531 5.7142857,5.7142857 0 0 1 0.171875,0.3925781 5.7142857,5.7142857 0 0 1 0.140625,0.4023439 5.7142857,5.7142857 0 0 1 0.111328,0.414062 5.7142857,5.7142857 0 0 1 0.07813,0.419922 5.7142857,5.7142857 0 0 1 0.04883,0.423828 A 5.7142857,5.7142857 0 0 1 26,11.714844 v 8.570312 a 5.7142857,5.7142857 0 0 1 -0.01563,0.427735 5.7142857,5.7142857 0 0 1 -0.04883,0.423828 5.7142857,5.7142857 0 0 1 -0.07813,0.419922 5.7142857,5.7142857 0 0 1 -0.111328,0.414062 5.7142857,5.7142857 0 0 1 -0.140625,0.402344 5.7142857,5.7142857 0 0 1 -0.171875,0.392578 5.7142857,5.7142857 0 0 1 -0.199219,0.376953 5.7142857,5.7142857 0 0 1 -0.226563,0.361328 5.7142857,5.7142857 0 0 1 -0.253906,0.34375 5.7142857,5.7142857 0 0 1 -0.279297,0.324219 5.7142857,5.7142857 0 0 1 -0.302734,0.302734 5.7142857,5.7142857 0 0 1 -0.324219,0.279297 5.7142857,5.7142857 0 0 1 -0.34375,0.253906 5.7142857,5.7142857 0 0 1 -0.361328,0.226563 5.7142857,5.7142857 0 0 1 -0.376953,0.199219 5.7142857,5.7142857 0 0 1 -0.392578,0.171875 5.7142857,5.7142857 0 0 1 -0.402344,0.140625 5.7142857,5.7142857 0 0 1 -0.414062,0.111328 5.7142857,5.7142857 0 0 1 -0.419922,0.07813 5.7142857,5.7142857 0 0 1 -0.423828,0.04883 A 5.7142857,5.7142857 0 0 1 20.285156,26 H 11.714844 A 5.7142857,5.7142857 0 0 1 10.443359,25.857422 5.7142857,5.7142857 0 0 1 9.234375,25.433594 5.7142857,5.7142857 0 0 1 8.1523438,24.753906 5.7142857,5.7142857 0 0 1 7.2460937,23.847656 5.7142857,5.7142857 0 0 1 6.5664062,22.765625 5.7142857,5.7142857 0 0 1 6.1425781,21.556641 5.7142857,5.7142857 0 0 1 6,20.285156 V 11.714844 A 5.7142857,5.7142857 0 0 1 6.1425781,10.443359 5.7142857,5.7142857 0 0 1 6.5664062,9.234375 5.7142857,5.7142857 0 0 1 7.2460937,8.1523438 5.7142857,5.7142857 0 0 1 8.1523438,7.2460937 5.7142857,5.7142857 0 0 1 9.234375,6.5664062 5.7142857,5.7142857 0 0 1 10.443359,6.1425781 5.7142857,5.7142857 0 0 1 11.714844,6 Z"
       style="stroke-width:4;stroke-linecap:round;stroke-linejoin:round;paint-order:markers stroke fill;fill:#ccc900;fill-opacity:1"
       id="path41" />
  </g>
</svg>
