<?xml version="1.0" encoding="UTF-8" standalone="no"?>
<!-- Created with Inkscape (http://www.inkscape.org/) -->

<svg
   width="32"
   height="32"
   viewBox="0 0 32 32"
   version="1.1"
   id="svg1"
   inkscape:version="1.3 (0e150ed6c4, 2023-07-21)"
   sodipodi:docname="checkbox.svg"
   xmlns:inkscape="http://www.inkscape.org/namespaces/inkscape"
   xmlns:sodipodi="http://sodipodi.sourceforge.net/DTD/sodipodi-0.dtd"
   xmlns="http://www.w3.org/2000/svg"
   xmlns:svg="http://www.w3.org/2000/svg">
  <sodipodi:namedview
     id="namedview1"
     pagecolor="#505050"
     bordercolor="#eeeeee"
     borderopacity="1"
     inkscape:showpageshadow="0"
     inkscape:pageopacity="0"
     inkscape:pagecheckerboard="0"
     inkscape:deskcolor="#d1d1d1"
     inkscape:document-units="px"
     showgrid="true"
     inkscape:zoom="6.3515625"
     inkscape:cx="16.688807"
     inkscape:cy="25.111931"
     inkscape:window-width="1920"
     inkscape:window-height="1009"
     inkscape:window-x="-8"
     inkscape:window-y="-8"
     inkscape:window-maximized="1"
     inkscape:current-layer="layer1">
    <inkscape:grid
       id="grid1"
       units="px"
       originx="0"
       originy="0"
       spacingx="1"
       spacingy="1"
       empcolor="#0099e5"
       empopacity="0.30196078"
       color="#0099e5"
       opacity="0.14901961"
       empspacing="5"
       dotted="false"
       gridanglex="30"
       gridanglez="30"
       visible="true" />
  </sodipodi:namedview>
  <defs
     id="defs1" />
  <g
     inkscape:label="Warstwa 1"
     inkscape:groupmode="layer"
     id="layer1">
    <path
       d="m 10,2 a 8,8 0 0 0 -1.5605469,0.1542969 8,8 0 0 0 -1.5,0.4550781 A 8,8 0 0 0 5.5546875,3.3476563 8,8 0 0 0 4.34375,4.34375 8,8 0 0 0 3.3476563,5.5546875 8,8 0 0 0 2.609375,6.9394531 a 8,8 0 0 0 -0.4550781,1.5 A 8,8 0 0 0 2,10 v 12 a 8,8 0 0 0 0.1542969,1.560547 8,8 0 0 0 0.4550781,1.5 8,8 0 0 0 0.7382813,1.384765 8,8 0 0 0 0.9960937,1.210938 8,8 0 0 0 1.2109375,0.996094 8,8 0 0 0 1.3847656,0.738281 8,8 0 0 0 1.5,0.455078 A 8,8 0 0 0 10,30 h 12 a 8,8 0 0 0 1.560547,-0.154297 8,8 0 0 0 1.5,-0.455078 8,8 0 0 0 1.384765,-0.738281 8,8 0 0 0 1.210938,-0.996094 8,8 0 0 0 0.996094,-1.210938 8,8 0 0 0 0.738281,-1.384765 8,8 0 0 0 0.455078,-1.5 A 8,8 0 0 0 30,22 V 10 A 8,8 0 0 0 29.982422,9.4765625 8,8 0 0 0 29.931641,8.9550781 8,8 0 0 0 29.845703,8.4394531 8,8 0 0 0 29.726562,7.9296875 8,8 0 0 0 29.576172,7.4277344 8,8 0 0 0 29.390625,6.9394531 8,8 0 0 0 29.175781,6.4609375 8,8 0 0 0 28.927734,6 8,8 0 0 0 28.652344,5.5546875 8,8 0 0 0 28.347656,5.1308594 8,8 0 0 0 28.015625,4.7246094 8,8 0 0 0 27.65625,4.34375 8,8 0 0 0 27.275391,3.984375 8,8 0 0 0 26.869141,3.6523438 8,8 0 0 0 26.445312,3.3476563 8,8 0 0 0 26,3.0722656 8,8 0 0 0 25.539062,2.8242188 8,8 0 0 0 25.060547,2.609375 8,8 0 0 0 24.572266,2.4238281 8,8 0 0 0 24.070312,2.2734375 8,8 0 0 0 23.560547,2.1542969 8,8 0 0 0 23.044922,2.0683594 8,8 0 0 0 22.523437,2.0175781 8,8 0 0 0 22,2 Z m 11.972656,4.0253906 a 2.0002,2.0002 0 0 1 0.679688,0.1132813 2.0002,2.0002 0 0 1 0.599609,0.3378906 2.0002,2.0002 0 0 1 0.451172,0.5214844 2.0002,2.0002 0 0 1 0.07031,0.1308593 2.0002,2.0002 0 0 1 0.0625,0.1347657 2.0002,2.0002 0 0 1 0.05078,0.1386718 2.0002,2.0002 0 0 1 0.04102,0.1425782 2.0002,2.0002 0 0 1 0.0293,0.1445312 2.0002,2.0002 0 0 1 0.01953,0.1464844 2.0002,2.0002 0 0 1 0.0098,0.1484375 2.0002,2.0002 0 0 1 -0.0039,0.1484375 2.0002,2.0002 0 0 1 -0.01367,0.1464844 2.0002,2.0002 0 0 1 -0.02344,0.1464844 2.0002,2.0002 0 0 1 -0.03516,0.1445312 2.0002,2.0002 0 0 1 -0.04687,0.140625 2.0002,2.0002 0 0 1 -0.05469,0.1367188 2.0002,2.0002 0 0 1 -0.06641,0.1328125 L 14.742188,24.980469 a 2.0002,2.0002 0 0 1 -0.351563,0.455078 2.0002,2.0002 0 0 1 -0.466797,0.33789 2.0002,2.0002 0 0 1 -0.542969,0.189454 2.0002,2.0002 0 0 1 -0.574218,0.02734 A 2.0002,2.0002 0 0 1 12.246094,25.853516 2.0002,2.0002 0 0 1 11.75,25.5625 l -5,-4 A 2.0009763,2.0009763 0 0 1 6.2480469,20.964844 2.0009763,2.0009763 0 0 1 6.0117187,20.220703 2.0009763,2.0009763 0 0 1 6.078125,19.443359 2.0009763,2.0009763 0 0 1 6.4375,18.75 2.0009763,2.0009763 0 0 1 7.0351562,18.248047 2.0009763,2.0009763 0 0 1 7.7792969,18.011719 2.0009763,2.0009763 0 0 1 8.5566406,18.078125 2.0009763,2.0009763 0 0 1 9.25,18.4375 l 3.162109,2.529297 7.845703,-13.9472658 a 2.0002,2.0002 0 0 1 0.44336,-0.5253906 2.0002,2.0002 0 0 1 0.595703,-0.3457031 2.0002,2.0002 0 0 1 0.675781,-0.1230469 z"
       style="fill:#b3b3b3;stroke-width:4;stroke-linecap:round;stroke-linejoin:round;paint-order:markers stroke fill"
       id="path4" />
  </g>
</svg>
