<?xml version="1.0" encoding="UTF-8" standalone="no"?>
<!-- Created with Inkscape (http://www.inkscape.org/) -->

<svg
   width="32"
   height="32"
   viewBox="0 0 32 32"
   version="1.1"
   id="svg1"
   inkscape:version="1.3 (0e150ed6c4, 2023-07-21)"
   sodipodi:docname="year.svg"
   xmlns:inkscape="http://www.inkscape.org/namespaces/inkscape"
   xmlns:sodipodi="http://sodipodi.sourceforge.net/DTD/sodipodi-0.dtd"
   xmlns="http://www.w3.org/2000/svg"
   xmlns:svg="http://www.w3.org/2000/svg">
  <sodipodi:namedview
     id="namedview1"
     pagecolor="#505050"
     bordercolor="#eeeeee"
     borderopacity="1"
     inkscape:showpageshadow="0"
     inkscape:pageopacity="0"
     inkscape:pagecheckerboard="0"
     inkscape:deskcolor="#d1d1d1"
     inkscape:document-units="px"
     showgrid="true"
     inkscape:zoom="11.313709"
     inkscape:cx="17.589281"
     inkscape:cy="10.474019"
     inkscape:window-width="1920"
     inkscape:window-height="1009"
     inkscape:window-x="1912"
     inkscape:window-y="-8"
     inkscape:window-maximized="1"
     inkscape:current-layer="layer3"
     showguides="true">
    <inkscape:grid
       id="grid1"
       units="px"
       originx="0"
       originy="0"
       spacingx="1"
       spacingy="1"
       empcolor="#0099e5"
       empopacity="0.30196078"
       color="#0099e5"
       opacity="0.14901961"
       empspacing="5"
       dotted="false"
       gridanglex="30"
       gridanglez="30"
       visible="true" />
  </sodipodi:namedview>
  <defs
     id="defs1">
    <rect
       x="6"
       y="10"
       width="20"
       height="16"
       id="rect3" />
    <rect
       x="17"
       y="22"
       width="7.7597756"
       height="6"
       id="rect2" />
    <inkscape:path-effect
       effect="fillet_chamfer"
       id="path-effect1"
       is_visible="true"
       lpeversion="1"
       nodesatellites_param="F,0,0,1,0,0,0,1 @ F,0,0,1,0,0,0,1 @ F,0,0,1,0,4,0,1 @ F,0,0,1,0,4,0,1"
       radius="0"
       unit="px"
       method="auto"
       mode="F"
       chamfer_steps="1"
       flexible="false"
       use_knot_distance="true"
       apply_no_radius="true"
       apply_with_radius="true"
       only_selected="false"
       hide_knots="false" />
  </defs>
  <g
     inkscape:label="Warstwa 1"
     inkscape:groupmode="layer"
     id="layer1">
    <path
       d="m 10,2 a 8,8 0 0 0 -1.5605469,0.1542969 8,8 0 0 0 -1.5,0.4550781 A 8,8 0 0 0 5.5546875,3.3476563 8,8 0 0 0 4.34375,4.34375 8,8 0 0 0 3.3476563,5.5546875 8,8 0 0 0 2.609375,6.9394531 a 8,8 0 0 0 -0.4550781,1.5 A 8,8 0 0 0 2,10 v 12 a 8,8 0 0 0 0.1542969,1.560547 8,8 0 0 0 0.4550781,1.5 8,8 0 0 0 0.7382813,1.384765 8,8 0 0 0 0.9960937,1.210938 8,8 0 0 0 1.2109375,0.996094 8,8 0 0 0 1.3847656,0.738281 8,8 0 0 0 1.5,0.455078 A 8,8 0 0 0 10,30 h 12 a 8,8 0 0 0 1.560547,-0.154297 8,8 0 0 0 1.5,-0.455078 8,8 0 0 0 1.384765,-0.738281 8,8 0 0 0 1.210938,-0.996094 8,8 0 0 0 0.996094,-1.210938 8,8 0 0 0 0.738281,-1.384765 8,8 0 0 0 0.455078,-1.5 A 8,8 0 0 0 30,22 V 10 A 8,8 0 0 0 29.982422,9.4765625 8,8 0 0 0 29.931641,8.9550781 8,8 0 0 0 29.845703,8.4394531 8,8 0 0 0 29.726562,7.9296875 8,8 0 0 0 29.576172,7.4277344 8,8 0 0 0 29.390625,6.9394531 8,8 0 0 0 29.175781,6.4609375 8,8 0 0 0 28.927734,6 8,8 0 0 0 28.652344,5.5546875 8,8 0 0 0 28.347656,5.1308594 8,8 0 0 0 28.015625,4.7246094 8,8 0 0 0 27.65625,4.34375 8,8 0 0 0 27.275391,3.984375 8,8 0 0 0 26.869141,3.6523438 8,8 0 0 0 26.445312,3.3476563 8,8 0 0 0 26,3.0722656 8,8 0 0 0 25.539062,2.8242188 8,8 0 0 0 25.060547,2.609375 8,8 0 0 0 24.572266,2.4238281 8,8 0 0 0 24.070312,2.2734375 8,8 0 0 0 23.560547,2.1542969 8,8 0 0 0 23.044922,2.0683594 8,8 0 0 0 22.523437,2.0175781 8,8 0 0 0 22,2 Z M 6,10 H 26 V 22 A 4,4 0 0 1 25.863281,23.035156 4,4 0 0 1 25.464844,24 4,4 0 0 1 24.828125,24.828125 4,4 0 0 1 24,25.464844 4,4 0 0 1 23.035156,25.863281 4,4 0 0 1 22,26 H 10 A 4,4 0 0 1 8.9648438,25.863281 4,4 0 0 1 8,25.464844 4,4 0 0 1 7.171875,24.828125 4,4 0 0 1 6.5351562,24 4,4 0 0 1 6.1367187,23.035156 4,4 0 0 1 6,22 Z"
       style="fill:#b3b3b3;stroke-width:4;stroke-linecap:round;stroke-linejoin:round;paint-order:markers stroke fill"
       id="path1" />
  </g>
  <g
     inkscape:groupmode="layer"
     id="layer2"
     inkscape:label="Rok"
     style="display:none">
    <path
       style="font-weight:900;font-size:7px;font-family:Inter;-inkscape-font-specification:'Inter Heavy';text-align:center;text-anchor:middle;white-space:pre;fill:#b3b3b3;stroke-width:4;stroke-linecap:round;stroke-linejoin:round;paint-order:markers stroke fill"
       d="m 6.8572437,17.279001 v -0.994318 l 1.8991477,-1.571022 q 0.1889205,-0.156606 0.3231534,-0.293324 0.1367188,-0.139205 0.2088069,-0.285867 0.074574,-0.146662 0.074574,-0.325639 0,-0.196378 -0.084517,-0.335582 -0.082031,-0.139205 -0.2286932,-0.213779 -0.1466619,-0.07706 -0.3380682,-0.07706 -0.1914062,0 -0.3380682,0.07706 -0.1441761,0.07706 -0.2237216,0.226208 -0.079545,0.149147 -0.079545,0.362926 h -1.3125 q 0,-0.536932 0.2411222,-0.924716 0.2411221,-0.387784 0.6811079,-0.596591 0.4399858,-0.208807 1.0316051,-0.208807 0.6115057,0 1.0589489,0.196378 0.4499294,0.193892 0.6935374,0.546875 0.246094,0.352983 0.246094,0.82777 0,0.293324 -0.121804,0.584162 -0.121804,0.288352 -0.4375,0.638849 -0.3156967,0.350497 -0.8973729,0.835227 l -0.4772727,0.397728 v 0.02983 h 1.9886366 v 1.103693 z m 6.7414783,0.139205 q -0.693537,-0.0025 -1.198153,-0.320668 -0.504617,-0.318181 -0.778054,-0.917258 -0.273438,-0.599077 -0.270952,-1.43679 0.0025,-0.840199 0.273438,-1.426846 0.273437,-0.586648 0.775568,-0.892401 0.504616,-0.305753 1.198153,-0.305753 0.693537,0 1.198154,0.308239 0.504616,0.305753 0.778054,0.8924 0.273437,0.586648 0.270951,1.424361 0,0.842685 -0.273437,1.441761 -0.273438,0.599077 -0.778054,0.917259 -0.502131,0.315696 -1.195668,0.315696 z m 0,-1.12358 q 0.357955,0 0.586648,-0.372869 0.231179,-0.375355 0.228693,-1.178267 0,-0.524503 -0.104403,-0.857599 -0.104404,-0.333097 -0.288353,-0.492188 -0.183948,-0.161577 -0.422585,-0.161577 -0.357954,0 -0.584162,0.362927 -0.226207,0.362926 -0.231179,1.148437 -0.0025,0.534446 0.101918,0.879972 0.104403,0.343039 0.288352,0.507102 0.186435,0.164062 0.425071,0.164062 z m 2.893469,0.984375 v -0.994318 l 1.899147,-1.571022 q 0.188921,-0.156606 0.323154,-0.293324 0.136718,-0.139205 0.208806,-0.285867 0.07457,-0.146662 0.07457,-0.325639 0,-0.196378 -0.08452,-0.335582 -0.08203,-0.139205 -0.228693,-0.213779 -0.146662,-0.07706 -0.338068,-0.07706 -0.191406,0 -0.338068,0.07706 -0.144176,0.07706 -0.223722,0.226208 -0.07954,0.149147 -0.07954,0.362926 h -1.3125 q 0,-0.536932 0.241122,-0.924716 0.241122,-0.387784 0.681108,-0.596591 0.439986,-0.208807 1.031605,-0.208807 0.611506,0 1.058949,0.196378 0.449929,0.193892 0.693537,0.546875 0.246093,0.352983 0.246093,0.82777 0,0.293324 -0.121803,0.584162 -0.121804,0.288352 -0.4375,0.638849 -0.315697,0.350497 -0.897373,0.835227 l -0.477272,0.397728 v 0.02983 h 1.988636 v 1.103693 z m 4.365058,-0.795454 v -1.073864 l 2.048295,-3.221591 h 0.974432 v 1.431819 h -0.556818 l -1.103694,1.75 v 0.03977 h 3.022728 v 1.073864 z m 2.475852,0.795454 v -1.123579 l 0.02983,-0.46733 v -3.5 h 1.292614 v 5.090909 z"
       id="text3"
       transform="translate(-1.820651e-6,2.6516504)"
       aria-label="2024" />
  </g>
  <g
     inkscape:groupmode="layer"
     id="layer3"
     inkscape:label="Kalendarz">
    <rect
       style="fill:#b3b3b3;stroke-width:4;stroke-linecap:round;stroke-linejoin:round;paint-order:markers stroke fill"
       id="rect1"
       width="3"
       height="3"
       x="7"
       y="11.5" />
    <rect
       style="fill:#b3b3b3;stroke-width:4;stroke-linecap:round;stroke-linejoin:round;paint-order:markers stroke fill"
       id="rect1-4"
       width="3"
       height="3"
       x="12"
       y="11.5" />
    <rect
       style="fill:#b3b3b3;stroke-width:4;stroke-linecap:round;stroke-linejoin:round;paint-order:markers stroke fill"
       id="rect1-9"
       width="3"
       height="3"
       x="17"
       y="11.5" />
    <rect
       style="fill:#b3b3b3;stroke-width:4;stroke-linecap:round;stroke-linejoin:round;paint-order:markers stroke fill"
       id="rect1-4-2"
       width="3"
       height="3"
       x="22"
       y="11.5" />
    <rect
       style="fill:#b3b3b3;stroke-width:4;stroke-linecap:round;stroke-linejoin:round;paint-order:markers stroke fill"
       id="rect1-5"
       width="3"
       height="3"
       x="7"
       y="16" />
    <rect
       style="fill:#b3b3b3;stroke-width:4;stroke-linecap:round;stroke-linejoin:round;paint-order:markers stroke fill"
       id="rect1-4-3"
       width="3"
       height="3"
       x="12"
       y="16" />
    <rect
       style="fill:#b3b3b3;stroke-width:4;stroke-linecap:round;stroke-linejoin:round;paint-order:markers stroke fill"
       id="rect1-9-6"
       width="3"
       height="3"
       x="17"
       y="16" />
    <rect
       style="fill:#b3b3b3;stroke-width:4;stroke-linecap:round;stroke-linejoin:round;paint-order:markers stroke fill"
       id="rect1-4-2-9"
       width="3"
       height="3"
       x="22"
       y="16" />
    <rect
       style="fill:#b3b3b3;stroke-width:4;stroke-linecap:round;stroke-linejoin:round;paint-order:markers stroke fill"
       id="rect1-7"
       width="3"
       height="3"
       x="7"
       y="20.5" />
    <rect
       style="fill:#b3b3b3;stroke-width:4;stroke-linecap:round;stroke-linejoin:round;paint-order:markers stroke fill"
       id="rect1-4-33"
       width="3"
       height="3"
       x="12"
       y="20.5" />
    <rect
       style="fill:#b3b3b3;stroke-width:4;stroke-linecap:round;stroke-linejoin:round;paint-order:markers stroke fill"
       id="rect1-9-9"
       width="3"
       height="3"
       x="17"
       y="20.5" />
    <rect
       style="fill:#b3b3b3;stroke-width:4;stroke-linecap:round;stroke-linejoin:round;paint-order:markers stroke fill"
       id="rect1-4-2-1"
       width="3"
       height="3"
       x="22"
       y="20.5" />
  </g>
</svg>
